<?xml version="1.0" encoding="UTF-8"?>
<!DOCTYPE svg PUBLIC "-//W3C//DTD SVG 1.1//EN" "http://www.w3.org/Graphics/SVG/1.1/DTD/svg11.dtd">
<!-- Creator: CorelDRAW X7 -->
<svg xmlns="http://www.w3.org/2000/svg" xml:space="preserve" width="3000px" height="3000px" version="1.1" style="shape-rendering:geometricPrecision; text-rendering:geometricPrecision; image-rendering:optimizeQuality; fill-rule:evenodd; clip-rule:evenodd"
viewBox="0 0 3000 3000"
 xmlns:xlink="http://www.w3.org/1999/xlink">
 <defs>
  <style type="text/css">
   <![CDATA[
    .fil7 {fill:none}
    .fil5 {fill:#FEFEFE}
    .fil4 {fill:black}
    .fil0 {fill:black}
    .fil3 {fill:#006F23}
    .fil6 {fill:#021EAA}
    .fil9 {fill:#D81F00}
    .fil1 {fill:#FBE600}
    .fil8 {fill:white}
    .fil10 {fill:white}
    .fil2 {fill:black;fill-rule:nonzero}
   ]]>
  </style>
    <clipPath id="id0">
     <path d="M2309 1795c-121,452 -438,774 -810,774 -371,0 -688,-322 -809,-774l1619 0z"/>
    </clipPath>
 </defs>
 <g id="Layer_x0020_1">
  <metadata id="CorelCorpID_0Corel-Layer"/>
  <g id="_1773764522896">
   <g>
    <path class="fil0" d="M2679 1717c26,48 30,102 -2,149 -18,26 -44,38 -72,43 5,12 6,24 1,38 -5,12 -14,21 -25,26 7,13 10,28 4,45 -142,370 -404,716 -796,838 -94,29 -192,44 -290,44 -514,0 -922,-420 -1084,-880 -2,-5 -3,-9 -3,-14 -1,-12 3,-24 9,-34 -11,-5 -20,-13 -25,-25 -5,-13 -4,-25 1,-37 -33,-6 -63,-23 -81,-55 -20,-36 -19,-79 -6,-116 16,-41 46,-76 83,-98l50 -29 2 58c0,18 3,36 16,49 24,23 81,31 114,37 616,-1 1233,-1 1849,-2 29,-4 94,-13 113,-31 14,-13 19,-41 21,-58l8 -48 43 23c26,15 55,51 70,77z"/>
    <path class="fil1" d="M447 2008c161,458 562,858 1052,858 459,0 849,-326 1054,-860 9,-25 -42,-51 -66,-69 92,28 130,-9 25,-65 54,8 111,13 137,-25 53,-79 -34,-164 -57,-177 -15,93 -46,99 -165,118 -618,1 -1237,1 -1855,2 -88,-15 -160,-28 -162,-120 -113,67 -109,250 77,201 -78,44 -90,95 26,66 -19,15 -75,46 -66,71z"/>
    <path class="fil2" d="M562 2083l18 -8 24 55 -43 19c-7,-4 -14,-10 -22,-19 -8,-8 -14,-18 -18,-28 -6,-13 -9,-25 -9,-36 0,-12 3,-22 10,-31 6,-10 15,-17 26,-22 12,-5 23,-7 34,-5 11,2 21,6 29,14 8,7 15,17 20,29 7,16 10,29 8,40 -1,12 -6,21 -16,28l-15 -23c5,-4 8,-10 8,-16 1,-7 0,-13 -3,-20 -5,-11 -12,-19 -21,-23 -9,-4 -19,-4 -31,2 -13,5 -21,13 -25,24 -3,9 -2,18 3,29 2,5 5,10 9,15 4,4 8,8 13,11l13 -6 -12 -29zm-3 95l104 -55 48 91 -18 10 -34 -67 -23 12 32 62 -18 9 -32 -61 -29 14 36 69 -17 9 -49 -93zm61 113l96 -68 24 35 -51 67 80 -27 25 35 -97 68 -15 -21 76 -54 -92 31 -15 -22 60 -76 -76 54 -15 -22zm177 226l-20 -23 12 -26 -37 -42 -28 9 -19 -22 124 -38 19 22 -51 120zm1 -69l20 -44 -46 15 26 29zm10 79l81 -86 20 20 -32 33 40 38 32 -33 21 19 -82 85 -20 -19 36 -37 -40 -38 -36 37 -20 -19zm146 128l60 -102 51 30c13,8 21,14 26,20 4,5 7,10 8,17 1,7 -1,13 -4,19 -5,8 -12,13 -20,15 -8,1 -18,0 -29,-5 4,6 7,11 8,16 2,5 3,14 4,25l3 28 -29 -17 -4 -32c-2,-12 -3,-19 -4,-23 -1,-3 -3,-6 -5,-8 -2,-2 -6,-5 -11,-8l-5 -3 -25 42 -24 -14zm58 -44l18 10c11,7 18,10 22,11 3,2 6,2 9,1 4,-1 6,-3 8,-7 2,-3 3,-6 2,-9 -1,-3 -3,-6 -5,-9 -2,-2 -9,-6 -19,-12l-19 -11 -16 26zm62 113l55 -104 25 13 -55 104 -25 -13zm49 26l40 -110 43 15c15,6 25,11 30,13 7,5 12,11 15,18 3,8 3,16 0,25 -3,8 -8,14 -14,17 -7,4 -14,6 -21,6 -7,0 -19,-3 -35,-9l-17 -7 -15 42 -26 -10zm60 -82l-12 32 15 5c9,4 16,6 20,6 4,0 7,0 11,-2 3,-2 5,-4 6,-8 2,-4 2,-7 0,-11 -1,-3 -3,-6 -6,-8 -3,-2 -10,-5 -22,-9l-12 -5zm169 151l-29 -6 -6 -29 -55 -12 -17 23 -29 -6 79 -104 29 7 28 127zm-40 -56l-9 -47 -28 38 37 9zm55 58l12 -117 28 3 -5 46 55 5 5 -46 27 3 -12 117 -28 -2 6 -52 -55 -5 -5 51 -28 -3zm193 7l-11 -117 59 -5c15,-2 26,-2 32,0 7,1 13,4 17,9 5,5 8,11 8,18 1,9 -1,17 -7,23 -6,7 -15,11 -26,13 6,3 11,6 16,9 4,3 10,9 17,17l19 22 -33 3 -23 -24c-8,-8 -13,-14 -16,-16 -3,-2 -6,-3 -9,-4 -3,0 -7,0 -14,0l-6 1 5 49 -28 2zm22 -70l20 -2c13,-1 21,-2 24,-3 4,-1 6,-3 8,-6 2,-2 3,-6 3,-9 -1,-4 -2,-7 -4,-9 -3,-2 -6,-4 -10,-4 -2,0 -10,0 -22,1l-22 2 3 30zm117 52l-35 -112 98 -31 6 19 -71 23 7 24 67 -20 6 19 -67 20 10 31 74 -23 6 19 -101 31zm124 -38l-49 -107 41 -19c15,-7 25,-11 30,-12 9,-2 16,-1 24,2 7,3 13,9 17,18 3,8 4,15 2,22 -2,7 -5,13 -11,18 -5,5 -15,11 -31,19l-16 7 18 41 -25 11zm-16 -101l14 31 14 -6c10,-5 16,-8 19,-11 3,-2 5,-5 6,-9 1,-3 1,-6 -1,-10 -1,-4 -4,-6 -7,-7 -3,-2 -7,-2 -11,-2 -3,1 -11,4 -21,9l-13 5zm133 46l-60 -101 88 -53 10 17 -64 39 13 22 60 -35 10 17 -60 35 16 28 67 -40 10 18 -90 53zm109 -69l-72 -93 22 -17 28 37 44 -34 -28 -37 22 -17 72 94 -22 17 -32 -41 -43 33 31 41 -22 17zm148 -124l-89 -77 38 -45c10,-11 18,-19 24,-22 6,-4 12,-5 19,-5 6,0 13,3 18,7 7,6 11,14 11,22 0,9 -3,18 -10,28 6,-3 12,-5 17,-5 6,-1 14,-1 25,0l29 2 -22 26 -33 -2c-12,0 -19,0 -23,0 -3,1 -6,2 -9,3 -2,2 -6,5 -10,10l-4 4 38 33 -19 21zm-33 -66l14 -16c8,-9 13,-16 15,-19 1,-3 2,-6 1,-9 0,-3 -2,-6 -5,-9 -2,-2 -5,-3 -9,-3 -3,0 -6,1 -9,3 -2,2 -7,8 -15,17l-15 17 23 19zm203 -148l-18 25 -28 -6 -33 45 15 25 -18 24 -63 -113 17 -24 128 24zm-68 14l-46 -10 24 41 22 -31zm75 -28l-102 -59 23 -39c8,-15 15,-24 18,-28 6,-6 13,-10 21,-11 7,-2 15,0 23,4 8,5 13,10 15,17 3,7 4,14 2,21 -1,8 -7,18 -15,33l-9 16 38 22 -14 24zm-71 -73l29 17 8 -14c6,-9 9,-15 10,-19 1,-4 1,-7 0,-11 -1,-3 -4,-6 -7,-8 -3,-2 -7,-2 -10,-1 -4,0 -7,2 -10,5 -2,2 -7,9 -13,19l-7 12zm134 -38l-106 -51 12 -25 106 51 -12 25zm24 -49l-108 -48 12 -26 42 19 22 -50 -42 -19 11 -26 108 48 -11 26 -47 -21 -23 50 47 21 -11 26z"/>
   </g>
   <ellipse class="fil0" cx="1500" cy="1392" rx="975" ry="1292"/>
   <ellipse class="fil1" cx="1500" cy="1392" rx="937" ry="1254"/>
   <ellipse class="fil0" cx="1500" cy="1392" rx="899" ry="1216"/>
   <ellipse class="fil3" cx="1500" cy="1392" rx="861" ry="1178"/>
   <polygon class="fil4" points="2324,1795 676,1795 749,1635 1107,1636 1172,1739 1347,1509 1648,1510 1827,1738 1890,1636 2248,1637 "/>
   <path class="fil5" d="M2309 1795c-121,452 -438,774 -810,774 -371,0 -688,-322 -809,-774l1619 0z"/>
   <g style="clip-path:url(#id0)">
    <g>
     <path id="1" class="fil6" d="M1443 2573c0,-6 -332,-45 -316,-120 104,-53 145,5 226,10 53,2 111,-15 112,-16 0,-7 4,-15 4,-24 0,-4 -1,-7 -1,-11 -2,-16 -9,-32 -13,-47 -7,-24 -10,-47 -10,-72 0,-4 0,-8 0,-11 -26,14 -78,16 -125,7 -41,-9 -79,-28 -116,-27 -49,0 -86,34 -141,34 -69,0 -87,-36 -138,-29 -57,-28 -113,-108 -102,-147 20,-11 55,-21 95,-21 46,0 88,34 144,34 54,0 99,-36 141,-36 69,1 101,33 151,35 46,1 76,-5 101,-17 -5,-26 -9,-52 -9,-79 1,-18 4,-34 9,-52 3,-14 7,-26 9,-38 -4,1 -48,19 -115,15 -57,-3 -83,-29 -140,-32 -48,-3 -94,32 -142,32 -52,1 -107,-34 -153,-34 -55,0 -79,33 -166,34 -74,-16 -59,-159 -60,-166 0,-8 764,-18 772,-18 7,0 14,6 14,14 0,14 2,28 5,41 3,12 7,23 10,34 4,13 6,25 6,38 1,17 -1,33 -4,50 -2,12 -6,25 -9,37 -4,16 -7,30 -8,46 0,27 4,53 10,80 5,22 11,46 11,69 0,18 -4,33 -9,50 -7,20 -13,35 -13,57 0,22 3,43 9,64 5,17 11,34 14,51 0,5 1,9 1,14 1,28 -3,48 -12,74 -3,11 -7,21 -9,32 -3,15 -4,30 -4,45 0,8 -7,14 -15,14 -7,0 -14,-6 -14,-14z"/>
     <path class="fil6" d="M1833 2480l0 -16 -166 0 0 95c57,-18 113,-45 166,-79z"/>
     <path class="fil6" d="M1833 2464l23 0c52,-32 100,-71 145,-115l0 -55 -168 0 0 170z"/>
     <path class="fil6" d="M1667 2464l0 -170 -133 0 0 -1c0,-22 6,-37 13,-57 5,-17 9,-32 9,-50 0,-19 -5,-39 -9,-58l120 0 0 -168 -116 0c0,-2 1,-4 1,-6 3,-17 5,-33 5,-50 -1,-13 -3,-25 -7,-38 -3,-11 -7,-22 -10,-34 -3,-13 -5,-27 -5,-41 0,-8 -7,-14 -14,-14 -8,0 -11,5 -13,12 -11,38 30,89 17,157 -2,12 -6,24 -9,38 -5,18 -8,34 -9,52 0,27 4,53 9,79 23,98 -10,146 -10,167 0,3 0,7 0,11 0,25 3,48 10,72 31,100 -10,116 -11,213 0,8 6,9 14,9 7,0 14,-6 14,-14 0,-15 1,-30 4,-45 2,-11 6,-21 9,-32 4,-11 7,-22 9,-32l112 0z"/>
     <polygon class="fil6" points="1667,2294 1833,2294 1833,2128 1667,2128 "/>
     <polygon class="fil6" points="1833,1960 1833,2128 2001,2128 2001,1960 "/>
     <path class="fil6" d="M2001 2128l0 166 54 0c44,-48 84,-101 121,-160l0 -6 -175 0z"/>
     <path class="fil6" d="M2168 1960l0 172 4 0c32,-54 61,-112 86,-172l-90 0z"/>
     <polygon class="fil6" points="2001,1960 2168,1960 2168,1789 2001,1789 "/>
     <polygon class="fil6" points="1833,1960 1833,1789 1667,1789 1667,1960 "/>
    </g>
   </g>
   <path class="fil7" d="M2309 1795c-121,452 -438,774 -810,774 -371,0 -688,-322 -809,-774l1619 0z"/>
   <g>
    <g>
     <g>
      <path class="fil0" d="M1841 416c4,3 7,6 9,10 5,10 5,23 2,34 -2,6 -3,10 -1,16 2,8 4,13 4,22 0,17 -5,35 -9,51 -1,2 -2,3 -4,4 -8,2 -15,3 -23,0 -7,-2 -14,-7 -21,-10 -11,-5 -22,-7 -34,-7 -8,1 -16,-1 -22,-6 -9,-6 -16,-16 -15,-27 1,-12 9,-19 19,-24 -21,-23 12,-68 48,-49 2,-6 5,-11 11,-15 11,-7 25,-7 36,1z"/>
      <path class="fil8" d="M1846 458c-8,28 15,20 -6,89 -28,9 -28,-17 -77,-17 -27,4 -49,-39 -5,-48 -33,-17 4,-72 40,-42 -1,-35 62,-35 48,18z"/>
     </g>
     <g>
      <path class="fil0" d="M1781 457c18,2 34,5 51,11 0,-14 6,-26 14,-37 1,-1 3,-3 4,-5 1,0 1,-1 2,-2 1,-1 3,-2 5,-2 1,0 3,1 4,2 11,14 20,46 24,62 4,22 7,54 -11,70 -12,13 -54,8 -70,6 -14,-3 -55,-10 -65,-19 -2,-2 -3,-5 -1,-7 1,-2 2,-4 4,-6 1,-1 3,-2 5,-3 11,-8 30,-14 43,-16 -8,-16 -11,-27 -15,-47 0,-1 0,-3 1,-5 2,-1 3,-2 5,-2z"/>
      <path class="fil3" d="M1781 463c20,2 37,5 57,13 -3,-18 5,-33 18,-48 13,16 42,97 14,124 -16,17 -115,-3 -127,-14 6,-11 38,-21 57,-23 -12,-19 -14,-28 -19,-52z"/>
     </g>
    </g>
    <g>
     <g>
      <path class="fil0" d="M1864 496c11,-4 24,-1 32,7 8,-11 20,-18 34,-13 9,3 15,10 18,18 4,11 2,23 -2,34 0,1 0,1 0,1 -3,5 -5,9 -5,15 0,9 0,14 -2,23 -4,16 -13,33 -21,47 -1,1 -3,2 -5,3 -8,0 -16,-1 -22,-6 -7,-4 -12,-10 -18,-15 -9,-8 -20,-12 -31,-15 -31,-4 -30,-53 -1,-58 -3,-5 -4,-11 -2,-17 2,-12 13,-21 25,-24z"/>
      <path class="fil8" d="M1941 540c-15,25 9,23 -28,85 -30,1 -23,-24 -70,-36 -28,-3 -24,-55 11,-46 -33,-27 23,-62 42,-31 20,-34 61,-16 45,28z"/>
     </g>
     <g>
      <path class="fil0" d="M1878 523c17,6 32,13 46,23 4,-12 11,-21 20,-29 2,-2 3,-3 5,-4 2,-2 4,-3 6,-4 2,-2 4,-2 6,-1 2,1 3,2 3,4 6,33 9,102 -24,121 -15,9 -50,-3 -64,-9 -13,-5 -47,-20 -54,-32 -2,-2 -1,-5 1,-7 0,0 0,-1 1,-1 1,-1 3,-2 5,-3 12,-6 31,-6 45,-4 -5,-17 -5,-29 -4,-49 1,-2 1,-3 3,-4 2,-1 3,-2 5,-1z"/>
      <path class="fil3" d="M1876 529c20,7 35,14 53,27 1,-19 12,-31 29,-43 4,19 12,96 -21,115 -20,12 -101,-25 -110,-39 9,-9 36,-8 55,-5 -7,-22 -7,-31 -6,-55z"/>
     </g>
    </g>
    <g>
     <g>
      <path class="fil0" d="M1984 587c29,-28 72,6 47,50 0,1 0,1 0,1 -4,5 -7,9 -9,15 -3,8 -5,15 -10,22 -8,15 -19,29 -30,42 -2,2 -4,2 -6,2 -8,-1 -14,-3 -20,-9 -7,-5 -12,-13 -17,-19 -9,-9 -19,-16 -30,-21 -30,-10 -21,-60 10,-58 -2,-8 -2,-16 3,-24 6,-10 18,-15 30,-15 13,0 24,6 32,14z"/>
      <path class="fil8" d="M2026 634c-19,22 -2,25 -49,79 -29,-3 -21,-28 -66,-48 -27,-8 -16,-60 18,-45 -22,-34 28,-60 55,-24 24,-31 65,-2 42,38z"/>
     </g>
     <g>
      <path class="fil0" d="M1961 607c16,9 29,19 43,32 9,-15 17,-25 35,-33 2,-1 4,-1 5,0 2,1 3,3 3,4 1,8 1,18 0,26 0,13 -2,27 -5,41 -5,21 -15,49 -37,58 -16,7 -53,-15 -66,-24 -12,-8 -47,-32 -52,-44 -2,-3 0,-6 2,-8 15,-8 40,-6 58,0 -1,-18 1,-29 5,-48 0,-2 2,-3 3,-4 2,-1 4,-1 6,0z"/>
      <path class="fil3" d="M1958 612c18,11 32,20 47,36 10,-17 18,-29 36,-37 2,13 2,103 -38,118 -22,9 -104,-50 -111,-65 16,-8 45,-5 62,3 -3,-22 -2,-31 4,-55z"/>
     </g>
    </g>
    <g>
     <g>
      <path class="fil0" d="M1991 705c4,-36 47,-41 67,-11 34,-21 60,25 35,59 0,1 -1,1 -1,2 -5,3 -9,7 -13,12 -5,7 -8,13 -14,19 -12,12 -27,23 -41,33 -1,1 -3,1 -5,0 -8,-3 -14,-6 -18,-14 -2,-5 -3,-10 -5,-16 -5,-8 -13,-16 -20,-22 -2,-1 -4,-3 -5,-4 -6,-6 -9,-14 -10,-22 -2,-12 1,-29 13,-36 6,-2 11,-2 17,0z"/>
      <path class="fil8" d="M2088 750c-23,17 -8,23 -67,64 -27,-11 -4,-21 -42,-52 -24,-14 -13,-70 17,-48 -2,-40 43,-46 61,-12 30,-25 54,17 31,48z"/>
     </g>
     <g>
      <path class="fil0" d="M2031 707c14,13 25,26 34,41 10,-9 19,-16 32,-20 2,-1 4,-1 6,-2 2,0 3,0 5,0 2,-1 3,0 5,1 1,1 2,3 1,5 0,8 -3,17 -6,24 -4,14 -9,27 -15,39 -10,19 -27,44 -50,47 -18,2 -46,-28 -56,-41 -9,-10 -34,-41 -36,-55 0,-3 1,-5 4,-6 2,-1 4,-1 5,-1 2,0 4,-1 6,-1 14,1 28,7 40,15 3,-16 7,-27 16,-44 1,-2 3,-3 5,-3 1,-1 3,0 4,1z"/>
      <path class="fil3" d="M2027 711c15,15 26,28 37,46 14,-13 24,-23 45,-26 -2,13 -25,100 -67,105 -23,3 -83,-75 -85,-91 17,-4 39,7 53,19 3,-22 6,-31 17,-53z"/>
     </g>
    </g>
    <g>
     <g>
      <path class="fil0" d="M2032 804c7,-38 53,-37 71,-4 35,-18 56,30 30,60 -1,1 -1,1 -2,1 -5,4 -10,7 -14,11 -6,7 -10,13 -17,19 -13,11 -29,20 -44,29 -2,1 -4,1 -6,0 -7,-4 -14,-8 -18,-16 -3,-5 -5,-10 -8,-15 -5,-9 -12,-17 -19,-25 -26,-20 -3,-74 27,-60z"/>
      <path class="fil8" d="M2128 856c-25,15 -12,24 -75,59 -27,-14 -10,-21 -44,-55 -23,-17 0,-71 28,-46 0,-44 49,-42 63,-6 33,-22 52,22 28,48z"/>
     </g>
     <g>
      <path class="fil0" d="M2074 810c12,14 23,28 32,45 13,-7 25,-15 40,-19 2,-1 4,-1 6,1 2,1 2,3 2,5 -2,8 -6,17 -9,24 -5,13 -11,25 -19,37 -12,18 -31,41 -54,42 -18,0 -43,-30 -53,-43 -9,-11 -32,-43 -33,-57 0,-2 1,-5 4,-6 18,-7 38,5 53,17 5,-17 11,-29 21,-46 1,-1 3,-2 5,-3 2,0 3,1 5,3z"/>
      <path class="fil3" d="M2069 813c14,16 25,31 34,51 17,-10 27,-18 45,-23 -3,12 -34,97 -77,98 -23,1 -78,-78 -79,-94 18,-7 41,9 54,22 5,-21 10,-33 23,-54z"/>
     </g>
    </g>
    <g>
     <g>
      <path class="fil0" d="M2062 908c17,-37 61,-24 70,14 39,-8 52,48 19,71 -1,1 -2,1 -2,1 -7,2 -12,4 -18,7 -8,5 -16,9 -25,13 -17,8 -35,14 -53,19 -2,0 -4,0 -6,-2 -6,-6 -11,-12 -13,-21 -2,-6 -2,-13 -4,-19 -2,-11 -7,-22 -12,-32 -2,-2 -3,-5 -4,-7 -9,-28 25,-64 48,-44z"/>
      <path class="fil8" d="M2147 989c-28,7 -25,19 -96,38 -21,-21 -5,-27 -29,-71 -16,-23 22,-70 42,-37 13,-45 59,-30 63,11 38,-15 50,37 20,59z"/>
     </g>
     <g>
      <path class="fil0" d="M2101 925c8,18 14,35 18,55 17,-5 33,-8 52,-6 2,0 4,1 5,3 0,2 1,4 0,5 -4,7 -12,16 -17,22 -9,11 -20,22 -31,32 -17,14 -43,32 -67,26 -18,-4 -34,-43 -39,-59 -6,-13 -19,-52 -16,-65 1,-3 3,-5 5,-5 3,0 5,0 8,0 16,2 30,18 39,33 5,-7 10,-14 14,-21 6,-9 12,-16 20,-22 1,-2 3,-2 5,-2 2,1 3,2 4,4z"/>
      <path class="fil3" d="M2096 927c8,20 15,38 18,60 19,-5 35,-10 56,-7 -5,12 -67,87 -108,77 -23,-5 -53,-101 -50,-118 19,-3 37,20 46,37 16,-22 19,-32 38,-49z"/>
     </g>
    </g>
    <g>
     <g>
      <path class="fil0" d="M2012 1057c-13,-30 32,-67 52,-39 9,-11 21,-18 36,-14 20,4 31,24 29,44 10,0 20,4 26,14 14,20 1,48 -20,57 -1,0 -2,0 -2,0 -7,0 -13,1 -19,3 -9,3 -18,6 -27,8 -19,4 -38,5 -56,6 -3,0 -4,0 -6,-2 -4,-7 -8,-14 -8,-23 -1,-7 0,-14 0,-20 0,-12 -2,-23 -5,-34z"/>
      <path class="fil8" d="M2132 1113c-29,2 -29,14 -102,18 -17,-25 1,-27 -13,-76 -11,-26 34,-62 47,-26 22,-41 70,-13 58,25 40,-6 44,45 10,59z"/>
     </g>
     <g>
      <path class="fil0" d="M2105 1099c19,-1 35,-1 54,5 2,1 3,2 3,4 1,2 1,4 -1,5 -4,6 -14,14 -20,18 -12,9 -24,17 -37,24 -20,11 -50,23 -72,12 -21,-11 -28,-44 -31,-65 -3,-21 -4,-49 -2,-70 0,-3 3,-5 6,-5 22,2 36,25 42,46 14,-13 27,-25 45,-36 1,-1 3,-1 5,0 2,1 3,2 4,4 3,19 3,39 4,58z"/>
      <path class="fil3" d="M2095 1042c4,21 3,42 5,63 20,-1 37,-2 57,5 -8,10 -84,71 -122,52 -36,-18 -31,-119 -30,-129 19,1 35,27 38,51 21,-18 30,-29 52,-42z"/>
     </g>
    </g>
    <g>
     <g>
      <path class="fil0" d="M2103 1167c38,8 33,64 -7,73 -1,1 -1,1 -2,1 -6,-1 -12,-1 -18,-1 -11,1 -20,2 -31,3 -19,0 -39,-1 -58,-4 -2,0 -4,-1 -5,-3 -3,-9 -5,-17 -4,-26 0,-7 2,-14 3,-21 1,-12 1,-24 0,-36 -7,-34 45,-65 65,-30 31,-25 69,5 57,44z"/>
      <path class="fil8" d="M2095 1235c-30,-4 -35,8 -107,-2 -12,-28 3,-28 -1,-80 -6,-30 43,-62 57,-20 28,-32 69,-1 51,39 40,1 36,54 0,63z"/>
     </g>
     <g>
      <path class="fil0" d="M2067 1218c19,2 34,2 52,12 1,1 2,3 3,5 0,2 -1,3 -2,5 -6,5 -17,10 -23,14 -13,7 -27,13 -41,18 -21,7 -54,15 -73,-1 -20,-15 -20,-51 -18,-73 1,-16 3,-31 6,-46 1,-9 3,-18 5,-26 1,-3 3,-4 6,-4 25,0 33,32 33,55 17,-11 32,-21 51,-29 2,0 4,0 5,1 2,1 3,3 3,5 0,21 -4,43 -7,64z"/>
      <path class="fil3" d="M2068 1154c0,22 -5,47 -7,69 19,3 36,1 55,12 -10,9 -96,58 -130,32 -32,-26 -7,-129 -4,-140 22,1 29,35 27,60 25,-15 35,-24 59,-33z"/>
     </g>
    </g>
    <g>
     <g>
      <path class="fil0" d="M2055 1281c35,18 19,72 -22,72 -1,0 -2,0 -2,-1 -6,-2 -11,-3 -16,-4 -12,-3 -23,-4 -34,-6 -20,-5 -40,-12 -60,-19 -2,-1 -3,-3 -3,-5 -2,-9 -2,-18 0,-27 1,-7 3,-14 5,-22 4,-12 6,-24 8,-36 2,-35 61,-50 72,-11 12,-7 26,-8 39,0 20,13 25,40 13,59z"/>
      <path class="fil8" d="M2033 1347c-28,-11 -42,-3 -110,-30 -4,-31 6,-31 14,-83 1,-30 58,-46 62,-2 39,-31 75,22 46,52 39,11 25,64 -12,63z"/>
     </g>
     <g>
      <path class="fil0" d="M2006 1323c3,1 6,1 9,2 19,6 31,12 42,29 1,1 1,3 1,5 -1,1 -2,2 -3,3 -7,4 -20,6 -28,8 -15,2 -30,4 -46,4 -22,1 -57,-2 -72,-21 0,0 0,0 0,0 -26,-37 4,-110 24,-145 2,-2 4,-3 7,-2 23,6 19,42 21,64 20,-6 37,-13 59,-16 2,0 4,0 5,2 2,1 2,3 2,5 -6,21 -14,41 -21,62z"/>
      <path class="fil3" d="M2021 1260c-6,22 -15,45 -22,66 18,7 37,6 53,31 -12,6 -112,26 -138,-8 -29,-41 19,-128 24,-138 21,6 15,50 18,67 27,-9 39,-15 65,-18z"/>
     </g>
    </g>
    <g>
     <g>
      <path class="fil0" d="M1870 1302c5,-9 14,-15 24,-18 23,-6 44,5 46,27 13,-4 27,-3 38,7 18,16 17,44 2,62 37,29 5,75 -36,67 -1,-1 -2,-1 -2,-1 -5,-3 -10,-6 -15,-8 -11,-4 -22,-8 -32,-12 -19,-8 -38,-19 -55,-30 -2,-1 -3,-3 -3,-5 1,-9 2,-18 5,-26 3,-7 7,-14 10,-21 6,-11 10,-22 15,-34 0,-3 2,-6 3,-8z"/>
      <path class="fil8" d="M1945 1441c-25,-16 -41,-11 -102,-50 2,-31 11,-30 29,-79 7,-30 67,-36 62,8 44,-23 69,33 37,60 41,26 10,69 -26,61z"/>
     </g>
     <g>
      <path class="fil0" d="M1923 1415c4,2 9,4 13,6 16,7 24,15 31,31 1,2 1,4 0,5 -1,2 -2,3 -4,3 -8,3 -21,4 -30,4 -16,2 -33,1 -49,-2 -25,-4 -50,-15 -62,-39 0,0 0,0 0,0 -10,-23 -2,-50 7,-72 6,-15 15,-29 24,-43 5,-8 11,-16 17,-23 1,-2 4,-2 7,-1 19,10 11,47 9,68 21,-2 42,-6 64,-5 2,0 4,1 5,3 1,2 1,4 0,6 -10,20 -21,39 -32,59z"/>
      <path class="fil3" d="M1950 1353c-10,21 -23,43 -34,64 16,11 34,10 46,38 -13,4 -108,17 -135,-34 -20,-46 40,-124 47,-132 17,9 6,53 6,69 29,-2 44,-6 70,-5z"/>
     </g>
    </g>
    <g>
     <g>
      <path class="fil0" d="M1860 1388c17,-2 33,3 43,17 14,21 5,47 -11,64 13,13 19,32 7,50 -11,14 -30,20 -47,13 0,0 -1,-1 -1,-1 -3,-3 -6,-5 -10,-7 -11,-8 -23,-14 -34,-22 -20,-12 -39,-27 -56,-42 -2,-2 -3,-4 -2,-6 2,-9 5,-17 9,-25 4,-8 10,-15 15,-23 8,-11 15,-22 22,-34 13,-32 63,-24 65,16z"/>
      <path class="fil8" d="M1854 1527c-22,-20 -45,-23 -99,-72 6,-30 19,-34 45,-81 11,-27 58,-19 54,20 49,-10 67,41 29,75 37,32 2,71 -29,58z"/>
     </g>
     <g>
      <path class="fil0" d="M1826 1497c6,4 14,7 21,11 13,9 19,19 22,34 1,2 0,3 -1,5 -1,1 -2,2 -4,2 -21,3 -41,4 -63,0 -36,-8 -62,-29 -72,-65 0,0 0,-1 0,-1 -8,-33 2,-64 21,-91 13,-17 25,-27 41,-40 1,-1 2,-2 4,-2 2,1 3,1 4,3 11,14 13,29 8,46 -2,6 -5,12 -8,18 0,1 -1,4 -2,6 24,0 46,1 70,6 2,0 4,2 4,3 1,2 1,4 0,6 -14,20 -30,39 -45,59z"/>
      <path class="fil3" d="M1866 1435c-13,18 -34,43 -48,63 14,13 39,13 46,45 -14,2 -107,18 -129,-61 -17,-70 51,-119 59,-126 22,30 -2,56 -5,72 32,1 52,1 77,7z"/>
     </g>
    </g>
    <path class="fil4" d="M1679 1554c0,0 39,-26 44,-31 5,-6 23,-26 46,-28 22,-2 43,4 38,8 -4,5 -21,12 -31,13 -10,2 -27,0 -32,4 -6,4 -64,48 -64,48l-1 -14z"/>
   </g>
   <g>
    <path class="fil0" d="M1671 904c7,0 13,5 13,12 0,8 -6,13 -13,13 -7,0 -13,-5 -13,-13 0,-7 6,-12 13,-12zm-6 -46c7,0 13,6 13,13 0,7 -6,13 -13,13 -7,0 -12,-6 -12,-13 0,-7 5,-13 12,-13zm-8 -46c7,0 12,6 12,13 0,7 -5,13 -12,13 -7,0 -13,-6 -13,-13 0,-7 6,-13 13,-13zm-27 -33c0,-8 5,-13 13,-13 7,0 12,5 12,13 0,7 -5,12 -12,12 -8,0 -13,-5 -13,-12zm-28 371c43,-51 79,-130 88,-195 16,-11 29,-27 24,-47 -3,-8 -8,-15 -15,-20 6,-8 7,-23 5,-31 -3,-8 -8,-13 -14,-16 8,-13 8,-38 -12,-46 12,-22 4,-43 -21,-49 8,-14 11,-31 -2,-44 -10,-10 -21,-12 -34,-10 -6,0 -19,3 -24,2 -14,-4 -37,-25 -47,-35 -22,-22 -41,-48 -54,-75 -7,-17 -13,-35 -15,-53 -1,-15 0,-30 4,-45l4 -14 -12 8c-49,29 -90,72 -95,130 -3,30 3,54 13,81 -15,21 -25,46 -18,73 7,30 36,56 56,79 38,43 113,117 122,172 7,37 -6,73 -28,102 -12,15 -40,43 -61,44 -1,0 -7,-3 -8,-4 -6,-3 -12,-7 -18,-9 -11,-4 -35,-8 -43,3 -5,8 -4,20 -1,29 4,12 13,21 23,27 6,3 12,4 18,5 3,0 21,0 23,2 0,0 0,1 0,1 -1,1 -14,13 -16,16 -10,11 -16,24 -15,39 1,17 8,30 24,37 5,2 10,3 15,4 1,0 5,1 6,2 -2,1 -7,2 -8,3 -6,2 -12,4 -16,9 -7,9 -7,21 -4,31 4,14 13,27 24,37 -7,32 -13,65 -17,97 -2,20 -4,43 -2,63 2,13 6,26 15,37 2,4 5,6 8,9 0,1 2,2 3,3 -2,2 -6,8 -7,9 -5,7 -8,15 -9,25 0,14 4,28 13,39 6,8 16,18 27,18 16,0 30,-31 34,-43 2,-7 4,-15 5,-22 6,-61 13,-180 -16,-235 36,-34 37,-104 23,-147 -3,-10 -7,-17 -14,-25 -2,-3 -8,-8 -9,-11 -1,-2 -1,-3 -1,-5 2,-1 6,-2 7,-2 6,-2 12,-5 17,-7 22,-11 40,-28 55,-46zm23 -408c-7,0 -12,-6 -12,-13 0,-7 5,-13 12,-13 7,0 13,6 13,13 0,7 -6,13 -13,13z"/>
    <path class="fil9" d="M1516 1395l-39 -1 -1 0c-1,2 -1,5 -2,7 -14,75 -21,122 -17,151 5,38 26,44 26,49 0,7 -15,14 -16,35 -1,27 20,51 34,51 11,0 31,-33 33,-60 1,-7 18,-160 -13,-227 -1,-2 -1,-4 -2,-5l-3 0z"/>
    <path class="fil10" d="M1643 797c-11,0 -19,-8 -19,-18 0,-11 8,-19 19,-19 10,0 18,8 18,19 0,10 -8,18 -18,18zm1 -68c0,10 -8,19 -19,19 -10,0 -18,-9 -18,-19 0,-10 8,-19 18,-19 11,0 19,9 19,19zm-127 474c2,-9 33,-1 81,-57 50,-59 80,-142 87,-195 36,-23 27,-51 4,-62 11,-4 20,-41 -11,-45 11,-3 22,-42 -10,-45 20,-27 7,-46 -20,-49 9,-13 16,-30 3,-44 -18,-18 -42,-3 -55,-6 -34,-10 -145,-115 -116,-215 -134,82 -87,185 -78,206 -49,67 -5,102 35,148 46,52 115,119 124,175 14,83 -63,150 -94,153 -6,0 -16,-9 -29,-14 -14,-5 -32,-5 -36,1 -7,11 0,37 20,48 16,9 44,-1 44,13 0,9 -33,21 -31,55 2,44 45,28 45,44 0,7 -17,5 -25,15 -9,10 -7,34 17,59l49 1c35,-35 32,-106 21,-142 -9,-27 -27,-28 -25,-44zm154 -268c-10,0 -19,-8 -19,-19 0,-10 9,-18 19,-18 10,0 18,8 18,18 0,11 -8,19 -18,19zm-6 -45c-10,0 -18,-9 -18,-19 0,-10 8,-18 18,-18 11,0 19,8 19,18 0,10 -8,19 -19,19zm-8 -47c-11,0 -19,-8 -19,-18 0,-10 8,-19 19,-19 10,0 18,9 18,19 0,10 -8,18 -18,18z"/>
   </g>
   <g>
    <path class="fil0" d="M1155 1221l14 15c28,28 51,63 60,102 5,19 6,45 -1,64 -8,22 -10,43 -25,62l-3 4 -4 -2c-4,-2 -7,-4 -10,-6l-3 3c-27,22 -47,29 -80,29 -36,-1 -70,-30 -94,-54l-12 -11 16 1c16,2 25,1 38,-6 15,-7 25,-10 41,-9 21,0 47,8 67,20 -14,-20 -19,-46 -19,-74 -1,-17 4,-34 9,-50 6,-20 16,-46 11,-68l-5 -20zm-41 -79c19,29 33,62 35,96 1,18 -2,41 -11,57 -12,21 -18,41 -36,57l-5 4 -4 -4c-28,-32 -35,-60 -29,-101 3,-18 11,-33 19,-48 8,-13 16,-27 19,-42 1,-5 2,-10 2,-15l-1 -21 11 17zm-41 -110c21,47 27,98 -3,142 -14,20 -24,37 -46,50l-5 3 -3 -5c-4,-7 -8,-14 -11,-21l-3 2c-25,10 -49,16 -75,8 -29,-8 -54,-40 -66,-65l-6 -13 13 5c22,8 50,-6 73,3 24,10 47,27 61,49 -7,-24 -3,-47 9,-75 6,-14 14,-25 24,-37 7,-8 16,-17 22,-27 3,-6 5,-11 5,-17l3 -22 8 20zm-17 -135l4 21c10,50 7,99 -31,135 -18,17 -32,32 -56,40l-1 0c1,3 2,6 2,9l2 6 -6 1c-27,4 -51,4 -75,-10 -26,-15 -42,-52 -48,-80l-3 -13 12 7c19,13 50,7 70,21 14,10 26,23 35,37 -7,-32 1,-57 22,-87 8,-12 18,-21 29,-29 9,-7 19,-13 26,-20 5,-5 8,-11 11,-18l7 -20zm22 -105l0 20c1,46 -19,92 -57,119 -19,14 -39,19 -62,22l-7 0 1 -6c1,-34 12,-71 40,-93 7,-5 15,-10 23,-13 16,-8 41,-17 51,-32l11 -17zm113 -282c25,-1 37,15 67,6l17 -5 -11 14c-11,14 -25,26 -41,34 -10,6 -25,12 -37,13 -24,2 -45,-1 -65,-15l-4 -2 2 -5c0,-1 1,-2 1,-3l-3 -8c-10,-21 -14,-41 -8,-64 6,-25 34,-46 56,-58l16 -8 -9 16c-9,18 6,42 -1,61 -5,11 -12,19 -20,27 -6,5 -12,10 -17,16 14,-14 32,-18 57,-19zm-10 79l-7 16c-4,11 -11,20 -18,29 -12,14 -35,35 -53,41 -22,8 -43,7 -65,2l-7 -1 2 -6c11,-30 31,-53 62,-62 23,-7 48,4 71,-10l15 -9zm-108 122c8,-3 15,-7 22,-14l13 -13 -3 18c-1,7 -3,13 -6,20 -5,16 -15,31 -26,44 -6,8 -17,19 -26,24 -20,12 -41,16 -64,16l-6 0 1 -6c4,-32 13,-56 42,-73 18,-10 34,-10 53,-16zm221 -286l9 2 -6 7c-15,19 -35,39 -55,51 -23,15 -39,15 -65,17l-8 0 2 -7c5,-24 15,-37 32,-54 23,-24 61,-23 91,-16zm-219 72c-5,19 17,38 14,59 -2,24 -12,48 -29,65l-5 5 -4 -5c-15,-18 -24,-36 -24,-60 0,-25 21,-54 39,-70l14 -13 -5 19zm-69 87c-1,20 22,35 23,56 1,24 -5,49 -20,69l-3 5 -5 -4c-17,-16 -30,-32 -33,-55 -4,-25 13,-56 28,-75l12 -15 -2 19zm-29 144c7,25 6,53 -5,78l-2 6 -6 -3c-22,-12 -41,-25 -51,-49 -11,-26 0,-64 12,-87l7 -12 4 13c7,20 34,32 41,54zm-34 103c13,25 19,53 13,81l-1 6 -6 -2c-26,-7 -47,-17 -63,-39 -18,-24 -15,-64 -8,-91l4 -13 7 12c11,19 42,25 54,46zm-17 96c19,21 31,47 33,75l0 6 -6 0c-27,0 -50,-4 -71,-22 -23,-19 -30,-58 -30,-86l0 -14 10 10c16,15 47,14 64,31zm1 314c15,-5 25,-7 41,-4 30,5 72,25 86,53l2 5 -4 2c-28,19 -49,24 -82,20 -36,-5 -69,-35 -88,-65l-7 -12 13 3c15,4 24,3 39,-2zm51 100c14,-6 24,-10 41,-9 32,2 67,20 90,42l5 5 -5 4c-26,21 -46,29 -79,28 -37,0 -73,-26 -95,-54l-9 -11 14 2c15,2 24,0 38,-7z"/>
    <path class="fil1" d="M1013 1434c40,5 41,-17 79,-15 36,1 72,20 87,40 -29,23 -48,27 -76,27 -25,-1 -53,-15 -90,-52zm152 -194c9,37 -20,78 -19,118 0,37 7,79 52,103 15,-19 18,-43 25,-61 7,-21 13,-88 -58,-160zm-56 -94c2,37 -33,66 -39,106 -5,36 -1,63 28,96 17,-16 25,-38 35,-56 11,-19 24,-76 -24,-146zm-41 -112c-4,33 -37,46 -52,83 -15,36 -18,64 5,102 22,-13 33,-32 44,-48 10,-15 37,-59 3,-137zm-14 -115c-11,31 -43,35 -66,68 -22,32 -31,58 -17,100 25,-7 40,-24 54,-38 13,-12 46,-46 29,-130zm18 -107c-15,23 -51,28 -75,47 -31,23 -38,65 -39,88 26,-3 44,-9 60,-20 13,-10 55,-46 54,-115zm27 -111c-22,23 -50,15 -77,31 -30,18 -36,45 -39,68 26,0 44,-4 61,-15 14,-8 48,-44 55,-84zm70 -98c-24,14 -52,4 -73,11 -33,10 -50,36 -57,58 25,4 44,4 62,-3 16,-5 54,-34 68,-66zm90 -81c-31,10 -46,-7 -68,-6 -35,2 -52,8 -67,37 21,14 42,15 61,13 17,-1 53,-16 74,-44zm34 -91c-18,21 -39,40 -54,49 -23,15 -37,14 -62,16 5,-25 16,-37 30,-51 12,-12 40,-26 86,-14zm-126 -8c-11,20 5,44 -2,61 -9,25 -34,32 -43,52 -10,-23 -13,-40 -8,-59 4,-16 22,-39 53,-54zm-97 72c-6,23 16,42 14,60 -3,27 -15,48 -29,62 -16,-20 -23,-36 -23,-56 0,-16 12,-42 38,-66zm-69 88c-2,23 22,39 22,57 1,27 -6,50 -18,66 -19,-17 -28,-32 -31,-52 -3,-16 4,-44 27,-71zm-71 92c8,21 35,35 41,54 8,28 5,54 -4,75 -26,-13 -40,-27 -49,-46 -7,-17 -6,-48 12,-83zm-46 113c12,19 43,28 54,46 14,27 17,54 13,77 -29,-8 -47,-19 -61,-37 -10,-15 -17,-47 -6,-86zm-26 112c16,16 49,16 63,31 21,23 31,48 32,71 -30,0 -50,-6 -67,-20 -15,-12 -29,-42 -28,-82zm-5 118c19,13 52,8 69,21 26,18 41,42 47,64 -30,5 -51,2 -71,-9 -17,-9 -37,-36 -45,-76zm13 125c22,8 53,-5 73,3 29,12 49,31 60,52 -27,11 -48,14 -71,8 -18,-5 -44,-26 -62,-63zm21 106c40,9 43,-12 80,-6 38,6 72,29 82,50 -31,20 -51,21 -78,18 -26,-4 -60,-23 -84,-62zm52 105c41,4 41,-18 79,-16 38,2 72,25 87,40 -28,24 -48,28 -75,27 -26,0 -62,-16 -91,-51z"/>
    <path class="fil0" d="M1332 1572c-101,-51 -197,-151 -261,-243 -51,-74 -94,-162 -109,-252 -9,-56 -14,-114 -10,-171 10,-174 97,-307 225,-421 2,-2 6,-2 8,0 2,3 2,6 0,8 -126,113 -211,242 -221,414 -4,56 1,113 10,168 14,88 56,175 107,248 62,90 157,189 257,238 2,2 4,5 2,8 -1,3 -5,4 -8,3z"/>
    <path class="fil1" d="M1177 496c25,-2 39,-1 62,-16 15,-9 36,-28 54,-49 -46,-12 -74,2 -86,14 -14,14 -25,26 -30,51z"/>
   </g>
  </g>
  <polygon class="fil7" points="0,0 3000,0 3000,3000 0,3000 "/>
 </g>
</svg>
